# xmcd
#
# Track frame offsets: 
#        150
#        22137
#        43210
#        58848
#        76398
#        97741
#        115821
#        128915
#        147548
#        168661
#
# Disc length: 2552 seconds
#
# Revision: 2
# Processed by: cddbd v1.5.2PL0 Copyright (c) Steve Scherf et al.
# Submitted via: ExactAudioCopyFreeDBPlugin 1.0
#
DISCID=8e09f60a
DTITLE=Iron Horse - Fade To Bluegrass Volume II
DYEAR=2006
DGENRE=Bluegrass
TTITLE0=Master Of Puppets
TTITLE1=The Thing That Should Not Be
TTITLE2=Memory Remains
TTITLE3=Creeping Death
TTITLE4=For Whom The Bell Tolls
TTITLE5=Harvester Of Sorrow
TTITLE6=To Live Is To Die
TTITLE7=Sad But True
TTITLE8=Frantic
TTITLE9=Welcome Home (Sanitarium)
EXTD=
EXTT0=
EXTT1=
EXTT2=
EXTT3=
EXTT4=
EXTT5=
EXTT6=
EXTT7=
EXTT8=
EXTT9=
PLAYORDER=
